# xmcd CD database file
#
# Track frame offsets:
#	150
#	10103
#	32513
#	57623
#	81099
#	95641
#	117898
#	138066
#	160233
#	180989
#	220651
#	236313
#	253860
#	279140
#	293903
#
# Disc length: 4143 seconds
#
# Revision: 0
# Processed by: cddbd v1.5.1PL0 Copyright (c) Steve Scherf et al.
# Submitted via: CDex 1.51
#
DISCID=c1102d0f
DTITLE=Ralph Lundsten - Dreamlight Disc II
DYEAR=2003
DGENRE=New Age
TTITLE0=In The Year Of Dreams
TTITLE1=Summer Herding
TTITLE2=In The Summer Of Bliss
TTITLE3=Like The Wind My Longing
TTITLE4=Midwinter Night
TTITLE5=Out In The Wide World
TTITLE6=Enchanted Forest
TTITLE7=In The Spring Of Love
TTITLE8=Springtime
TTITLE9=Song Of Summer
TTITLE10=In Sun And Rain
TTITLE11=In The Land Long Ago
TTITLE12=Summer Longing
TTITLE13=Of Summer Born
TTITLE14=Legend Of Winter
EXTD=YEAR: 2003
EXTT0=
EXTT1=
EXTT2=
EXTT3=
EXTT4=
EXTT5=
EXTT6=
EXTT7=
EXTT8=
EXTT9=
EXTT10=
EXTT11=
EXTT12=
EXTT13=
EXTT14=
PLAYORDER=
